<?xml version="1.0" encoding="UTF-8" standalone="no"?>
<!-- Created with Inkscape (http://www.inkscape.org/) -->

<svg
   width="210mm"
   height="297mm"
   viewBox="0 0 210 297"
   version="1.1"
   id="svg1"
   xml:space="preserve"
   xmlns:xlink="http://www.w3.org/1999/xlink"
   xmlns="http://www.w3.org/2000/svg"
   xmlns:svg="http://www.w3.org/2000/svg"><defs
     id="defs1"><linearGradient
       id="linearGradient9"><stop
         style="stop-color:#00294a;stop-opacity:1;"
         offset="0"
         id="stop9" /><stop
         style="stop-color:#00d1fe;stop-opacity:0.99215686;"
         offset="1"
         id="stop10" /></linearGradient><linearGradient
       id="linearGradient7"><stop
         style="stop-color:#00294a;stop-opacity:1;"
         offset="0"
         id="stop7" /><stop
         style="stop-color:#00d1fe;stop-opacity:0.9939394;"
         offset="1"
         id="stop8" /></linearGradient><linearGradient
       id="linearGradient5"><stop
         style="stop-color:#00294a;stop-opacity:1;"
         offset="0"
         id="stop5" /><stop
         style="stop-color:#00d1fe;stop-opacity:0.9939394;"
         offset="1"
         id="stop6" /></linearGradient><linearGradient
       xlink:href="#linearGradient5"
       id="linearGradient6"
       x1="169.72726"
       y1="126.74464"
       x2="186.35172"
       y2="128.74895"
       gradientUnits="userSpaceOnUse" /><linearGradient
       xlink:href="#linearGradient7"
       id="linearGradient8"
       x1="80.677948"
       y1="168.25279"
       x2="116.48974"
       y2="190.15279"
       gradientUnits="userSpaceOnUse" /><linearGradient
       xlink:href="#linearGradient9"
       id="linearGradient10"
       x1="66.251373"
       y1="153.47981"
       x2="19.365692"
       y2="143.2798"
       gradientUnits="userSpaceOnUse" /></defs><g
     id="layer1"><rect
       style="opacity:1;fill:#e6e6e6;fill-opacity:1;stroke:#0e4767;stroke-width:0.193981;-inkscape-stroke:none"
       id="rect10"
       width="130.67332"
       height="131.52185"
       x="39.663338"
       y="82.739075" /><g
       id="g10"
       transform="translate(30.547013,-19.516147)"><text
         xml:space="preserve"
         style="font-style:normal;font-variant:normal;font-weight:normal;font-stretch:normal;font-size:110.559px;line-height:1.25;font-family:'Comic Sans MS';-inkscape-font-specification:'Comic Sans MS, Normal';font-variant-ligatures:normal;font-variant-caps:normal;font-variant-numeric:normal;font-variant-east-asian:normal;fill:url(#linearGradient10);fill-opacity:1;stroke-width:1.29561"
         x="12.379481"
         y="206.06415"
         id="text2"><tspan
           id="tspan2"
           x="12.379481"
           y="206.06415"
           style="fill:url(#linearGradient10)">A</tspan></text><g
         id="layer1-7"
         transform="matrix(0.09635254,0.06032071,-0.06032071,0.09635254,91.010086,109.76837)"
         style="fill:#00294a;fill-opacity:1"><path
           style="color:#000000;display:inline;overflow:visible;visibility:visible;fill:#00294a;fill-opacity:1;fill-rule:nonzero;stroke:none;stroke-width:0.531496;marker:none;enable-background:accumulate"
           d="m 362.46655,399.37379 c -80.4519,0.30312 -160.7693,30.42522 -222.3125,90.28125 l 55.9062,55.28125 c 92.2564,-89.61065 240.7455,-90.14152 333.6562,-1.15625 l 55.7813,-55.81255 C 523.48725,428.577 442.91835,399.07062 362.46655,399.37374 Z m -166.4063,145.5625 -0.125,0.0937 z"
           id="path4391" /><path
           style="color:#000000;display:inline;overflow:visible;visibility:visible;fill:#00294a;fill-opacity:1;fill-rule:nonzero;stroke:none;stroke-width:0.531496;marker:none;enable-background:accumulate"
           d="m 362.37275,281.3738 c -110.9452,0.41801 -221.724,41.957 -306.593707,124.49999 l 55.468707,54.84375 c 138.9415,-134.55514 362.2624,-135.23852 502.0313,-1.375 l 56.6562,-55.78125 C 584.42125,321.6603 473.31795,280.95579 362.37275,281.3738 Z m -251.125,179.34374 -0.5625,0.53125 z"
           id="path4395" /><path
           style="color:#000000;display:inline;overflow:visible;visibility:visible;fill:#00294a;fill-opacity:1;fill-rule:nonzero;stroke:none;stroke-width:0.531496;marker:none;enable-background:accumulate"
           d="m 362.34155,516.87379 c -50.088,0.18872 -100.1218,18.95343 -138.4375,56.21875 l 53.4375,52.8125 c 47.1813,-45.82127 123.1117,-46.06831 170.625,-0.5625 l 53.2192,-53.3125 c -38.6066,-36.97548 -88.7558,-55.34497 -138.8437,-55.15625 z m -85,109.03125 -0.063,0.0625 z"
           id="path4381" /><path
           style="color:#000000;display:inline;overflow:visible;visibility:visible;fill:#00294a;fill-opacity:1;fill-rule:nonzero;stroke:none;stroke-width:0.531496;marker:none;enable-background:accumulate"
           id="path4411"
           d="m 780.99212,634.37006 a 78.5,78.5 0 0 1 -0.0574,-110.95833 78.5,78.5 0 0 1 110.95822,-0.17211 78.5,78.5 0 0 1 0.28684,110.95798 78.5,78.5 0 0 1 -110.95762,0.40159 L 836.5,578.86218 Z"
           transform="translate(-473.54519,131.70585)" /></g><path
         style="color:#000000;display:inline;overflow:visible;visibility:visible;opacity:1;fill:url(#linearGradient8);fill-opacity:1;fill-rule:nonzero;stroke:none;stroke-width:0.0604187;marker:none;enable-background:accumulate"
         d="m 101.84415,170.11329 c -7.770031,-4.82371 -17.325803,-6.76617 -26.866205,-4.71122 l 2.0521,8.69879 c 14.294517,-3.06924 28.633845,5.83657 32.218365,20.01497 l 8.74133,-2.01291 c -2.3924,-9.46294 -8.37557,-17.16593 -16.14559,-21.98964 z m -24.814105,3.98757 -0.0177,10e-4 z"
         id="path2" /><path
         style="color:#000000;display:inline;overflow:visible;visibility:visible;opacity:0.997722;fill:url(#linearGradient6);fill-opacity:1;fill-rule:nonzero;stroke:none;stroke-width:0.0604187;marker:none;enable-background:accumulate"
         id="path5"
         d="m 170.33662,131.8318 a 8.923624,8.923624 0 0 1 -0.007,-12.61338 8.923624,8.923624 0 0 1 12.61337,-0.0196 8.923624,8.923624 0 0 1 0.0326,12.61334 8.923624,8.923624 0 0 1 -12.61331,0.0457 l 6.28381,-6.336 z"
         transform="rotate(32.048284)" /></g></g></svg>
